<?xml version="1.0" encoding="UTF-8"?>
<!DOCTYPE svg PUBLIC "-//W3C//DTD SVG 1.1//EN" "http://www.w3.org/Graphics/SVG/1.1/DTD/svg11.dtd">
<!-- Creator: CorelDRAW 2018 (64-Bit) -->
<svg xmlns="http://www.w3.org/2000/svg" xml:space="preserve" width="4.45685cm" height="4.99007cm" version="1.1" style="shape-rendering:geometricPrecision; text-rendering:geometricPrecision; image-rendering:optimizeQuality; fill-rule:evenodd; clip-rule:evenodd"
viewBox="0 0 1115.94 1249.45"
 xmlns:xlink="http://www.w3.org/1999/xlink">
 <defs>
  <style type="text/css">
   <![CDATA[
    .fil0 {fill:#33CC99}
   ]]>
  </style>
 </defs>
 <g id="Layer_x0020_1">
  <metadata id="CorelCorpID_0Corel-Layer"/>
  <g id="_1720663791824">
   <g>
    <path class="fil0" d="M408.92 693.7c15.11,-0.14 23.67,5.65 36.93,6.84 59.7,5.35 90.9,-26.34 124.38,-58.06 3.41,-3.23 7.67,-8.18 10.92,-12.58 36.43,-49.38 -12.58,-29.88 -43.11,-29.63 -23.71,0.2 -58.91,-4.75 -79.61,2.01 -42.76,13.98 -102.37,103.43 -124.59,142.92 -19.18,34.09 -44.93,80.26 -58.86,114.64 -3.83,9.45 -8.65,20.9 -13.81,30.47 -6.13,11.37 -7.12,17.01 -12.01,29.03 -35.76,87.9 -22.08,85.71 -67.6,104.79 -22.33,9.36 -43.12,18.2 -66.61,27.01 -20.86,7.83 -106.94,31.86 -111.24,36.55 -4.95,5.42 -7.15,22.52 7.8,27.66 12.87,4.42 99.49,-25.58 120.69,-33.79 7.36,-2.85 13.16,-5.34 20.59,-8.35 14.32,-5.8 28.11,-12.7 43.59,-16.97l-30.26 102.14c-5.11,17.17 -8.43,35.48 -13.05,51.24 -6.96,23.72 -11.41,44.76 21.67,38.83 3.35,-7.49 1.48,-1.22 5.81,-9.75 0.58,-1.15 2.56,-5.6 2.91,-6.64l14.59 -62.59c1.15,-5.47 2.34,-9.36 4.16,-14.31 0.72,-1.95 2.57,-6.48 2.57,-6.49 0.24,-0.7 0.54,-1.61 0.77,-2.33 0.23,-0.73 0.51,-1.63 0.73,-2.38l32.86 -104.42c5.55,-10.01 130.56,-74.19 150.44,-85.97l32.86 -16.61c10.66,-5.32 -0.55,-0.18 7.04,-3.94 7.12,-3.52 6.51,-3.3 14.93,-5.71 10.71,18.86 22.69,26.61 39.74,33.96 14.25,6.14 34.19,13.46 51.42,13.4 39.59,-0.14 94.38,-14.94 111.81,-37.37 -8.11,-15.24 -28.81,-15.41 -44.07,-25.06 -23.04,-14.56 -64.93,-41.1 -91.91,-40.88 -66.87,0.54 -186.44,85.17 -252.07,114l33.26 -78.93c10.35,-21.99 0.87,-12.65 19.53,-43.25 7.9,-12.95 5.3,-17.39 12.81,-32.04l53.21 -91.95c0.4,-0.48 1.12,-1.15 1.52,-1.63 10.31,-12.19 9.12,-15.57 17.82,-28.11 4.33,-6.24 6.73,-9.38 11.44,-15.75z"/>
    <path class="fil0" d="M559.92 396.47c9.48,19.21 12.47,29.3 13.31,54.88 44.48,9.75 104.75,0.92 129.99,-32.79 9.99,-13.34 23.24,-20.34 30.55,-35.65l5.14 -16.67c0.22,-6.14 -0.78,-4.89 -1.28,-6.17 -0.81,-0.17 -116.72,-5.77 -144.69,10.44 -15.19,8.8 -22.67,19.87 -33.03,25.96z"/>
    <path class="fil0" d="M823.41 728.73c8.42,6.62 48.97,30.13 62.61,33.7 36.71,9.62 76.53,-1.81 109.64,-19.14 10.11,-5.29 13.63,-8.26 16.78,-18.15 -8.53,-6.73 -15.13,-7.44 -22.17,-10.21 -69.56,-27.44 -73.94,-65.96 -151.43,-42.65 -4.61,22.77 -9.68,41.45 -15.43,56.46z"/>
    <path class="fil0" d="M487.22 516.57c9.01,25.91 10.52,27.56 13.07,57 33.08,-7.88 77.27,14.16 120.71,-28.32l30.36 -30.2c44.87,-52.37 -21.63,-34.71 -23.44,-34.58 -62.23,4.34 -94.34,-17.12 -140.71,36.11z"/>
    <path class="fil0" d="M888.37 789.75c-29.4,-0.86 -73.16,-36.56 -101.67,-49.54 -11.83,-5.39 -49.56,-10.98 -65.96,1.05 -9.29,6.82 -3.77,-0.31 -5.9,14.23 -3.89,26.52 -11.28,31.14 -10.69,44.81 12.83,9.37 22.55,13.62 39.28,22.62l18.88 7.51c36.3,8.94 36.29,10.74 87.49,-6.71 27.47,-9.36 38.12,-14.55 38.58,-33.96z"/>
    <path class="fil0" d="M635.23 273.98c0.61,9.66 5.76,18.01 9.04,30.83 2.36,9.23 2.31,18.88 4.09,29.4 45.35,2.88 75.58,4.45 108.38,-18.93l14.07 -10.17c0.58,-0.5 1.33,-1.13 1.88,-1.67l39.2 -50.71c11.24,-23.69 -15.42,-7.28 -95.96,-11.27 -18.06,-0.89 -28.49,-1.57 -46.29,7.18 -10.19,5.01 -29.81,20.55 -34.41,25.34z"/>
    <path class="fil0" d="M579.22 866.09c12.13,11.29 64.14,37.13 87.68,38.83 29.14,2.09 88.74,-15.11 102.09,-42.21 -8.56,-4.93 -17.23,-6.97 -24.57,-9.43l-56.35 -30.33c-32.09,-17 -40.74,-28.14 -91.66,-11.91 -8.15,20.53 2.1,11.11 -17.19,55.05z"/>
    <path class="fil0" d="M1021.04 681.53c50.31,-8.14 69.98,-38.02 88.45,-53.78 -34,-20.65 -67.14,-61.18 -148.31,-37.3 -8.39,74.34 -2.29,21.55 -14.35,72.71 30.58,5.27 22.05,26.8 74.2,18.36z"/>
    <path class="fil0" d="M702.15 145.45c9.48,31.15 15.46,11.29 20.38,69.84 30.3,-1.43 43.05,8.69 71.76,-15.25l32.74 -34.87c8.79,-15.56 23.65,-39.65 22.47,-57.44 -17.25,-7.44 -58.52,-6.58 -83.04,0.06 -34.46,9.33 -41.68,19.36 -64.31,37.66z"/>
    <path class="fil0" d="M555.38 852.39c22.79,-57.82 1.05,-67.4 18.82,-145.22 -28.45,-4.56 -67.77,36.3 -81.71,53.75 -23.21,29.06 -32.15,52.32 -28.95,92.85 45.76,-14.19 52.61,-10.31 91.84,-1.38z"/>
    <path class="fil0" d="M392.7 614.3l23.54 -18.68c19.09,-14.59 29.37,-19.25 57.1,-24.94 -6.49,-54.27 -47.42,-86.64 -52.18,-134.82 -27.3,6.11 -40.66,52.47 -46.05,77.37 -6.41,29.68 -6.77,65.46 10.72,92.33 0.47,0.72 0.96,1.57 1.45,2.27 4.06,5.77 3.02,3.95 5.41,6.47z"/>
    <path class="fil0" d="M470.48 490.17c24.29,-15.42 43.37,-37.35 75.59,-35.44 0.12,-16.11 0.08,-23.06 -6.07,-36.69 -3.83,-8.5 -12.57,-23.86 -17.8,-33.02 -14.86,-26.03 -18.89,-45.06 -27.76,-66.48 -27.08,1.06 -38.43,50.14 -44.2,71.52 -12.72,47.13 6.68,62.26 20.24,100.11z"/>
    <path class="fil0" d="M676.4 782.8c16.5,-21.12 11.56,-57.8 12.28,-87.55 1.13,-47.04 20.3,-74.92 -23.39,-48.18 -56.03,34.29 -71.25,66.65 -72.26,135.11 71.71,-12.63 43.64,-4.19 83.37,0.62z"/>
    <path class="fil0" d="M546.34 370.96c11.63,-8.69 17.11,-15.07 31.09,-22.49 10.32,-5.48 24.82,-11.86 43.04,-15.44 -1.85,-15.54 -3.37,-29.63 -8.79,-39.65 -4.69,-8.66 -11.03,-18.16 -16.55,-29.2 -5.27,-10.54 -11.44,-19.96 -16.05,-31.02 -5.64,-13.53 -4.56,-23.39 -13.82,-34.14 -13.49,0.26 -77.46,78.59 -18.92,171.95z"/>
    <path class="fil0" d="M796.83 715.08c10.16,-9.31 13.63,-25.51 13.68,-39.02 0.05,-15.51 -1.87,-30.54 -0.68,-46.47 3.8,-50.9 19.39,-76.83 -19.92,-52.46 -58.51,36.28 -73.98,69.84 -74.58,136.78 26.52,-6.78 61.76,-12.21 81.5,1.18z"/>
    <path class="fil0" d="M920.69 645.23c10.03,-12.48 11.39,-17.04 11.97,-32.22 0.55,-14.03 -0.16,-22.01 -0.22,-37.32 -0.14,-34.89 8.81,-56.34 7.97,-74.25 -27.54,-1.08 -61.28,32.82 -79.17,51.53 -19.36,20.25 -23.73,55.5 -24.04,90.95 34.83,-8.39 54.19,-9.43 83.49,1.31z"/>
    <path class="fil0" d="M617.29 251.61c7.19,-3.9 7.07,-4.3 10.3,-6.52l23.54 -17.6c13.98,-7.33 25.92,-11.2 44.38,-14.57 -0.97,-6.62 -1.75,-13.32 -3.03,-19.87 -5.4,-27.69 -30.61,-51.89 -43.9,-94.81 -0.34,-1.11 -2.58,-8.79 -2.63,-8.92l-3.98 -8.08c-0.35,-0.64 -1.06,-1.6 -1.67,-2.35 -17.64,1.23 -35.63,54.07 -40.34,71.18 -14.58,52.93 3.46,58.37 17.32,101.53z"/>
    <path class="fil0" d="M1115.94 517.32l-1.52 -9.42c-30.29,-3.14 -60.6,-9.91 -93.7,0.53 -26.81,8.45 -58.82,22.09 -60.11,53.16 25.62,-4.59 41.76,-7.36 66.73,-3.05 29.36,5.06 33.68,10.11 54.23,17.44 7.04,-4.46 0.86,0.7 6.3,-4.47l11.36 -18.07c0.29,-0.67 0.65,-1.58 0.93,-2.25l15.78 -33.86z"/>
    <path class="fil0" d="M686.59 120.67c34.36,-23.01 54.21,-43.03 116.61,-44.97 1.49,-21.49 3.9,-48.79 -3.42,-75.7 -35.07,10.81 -58.42,21.7 -81.14,43.53 -16.06,15.42 -16.36,15.07 -26.21,34.23 -10.39,20.21 -13.31,17.04 -5.84,42.9z"/>
   </g>
  </g>
 </g>
</svg>
